#!OML:ASF C:\ViconDB\ViconDB\414\Spring2016\041811\Spring2016.ASF
:FULLY-SPECIFIED
:DEGREES
365
root 10.6587 18.7908 -10.0404 551.672 30.4621 185.798
lowerback 4.09179 -0.556262 -2.13756
upperback 0.057444 -0.79249 1.58453
thorax -2.18371 -0.359429 2.87717
lowerneck -21.1978 -0.834599 -11.8636
upperneck 21.2851 -1.36115 18.8511
head 10.5625 0.909682 8.91009
rclavicle 1.09332e-015 -1.07344e-014
rhumerus -41.7852 -31.8948 19.0999
rradius 23.8313
rwrist 54.2196
rhand -25.3278 -11.7775
rfingers 7.12502
rthumb 1.19497 -41.7539
lclavicle 1.09332e-015 -1.07344e-014
lhumerus -21.2193 -17.622 -4.13556
lradius 25.9652
lwrist -1.76727
lhand -29.8968 23.8569
lfingers 7.12502
lthumb -3.21779 53.8123
rfemur -21.7206 -193.06 -3.79748
rtibia 24.8117
rfoot -7.84005 -47.6826
rtoes -17.5482
lfemur -22.0081 -7.2026 -13.0264
ltibia 34.2245
lfoot -17.9916 -3.50451
ltoes -9.91397
366
root 10.6358 18.7075 -10.0731 550.971 33.5035 185.662
lowerback 4.73532 -0.381945 -2.92513
upperback 0.0793385 -0.613086 1.59593
thorax -2.52601 -0.255433 3.33113
lowerneck -20.5735 -0.999081 -11.8237
upperneck 21.3315 -1.66433 18.8124
head 10.5139 0.747751 8.82857
rclavicle -3.57812e-014 -5.96354e-015
rhumerus -39.5574 -31.4767 18.162
rradius 24.2577
rwrist 53.756
rhand -24.8058 -12.0103
rfingers 7.12502
rthumb 1.6991 -41.9832
lclavicle -3.57812e-014 -5.96354e-015
lhumerus -21.0008 -17.1352 -4.61332
lradius 25.7911
lwrist -2.49611
lhand -30.2303 24.0025
lfingers 7.12502
lthumb -3.53985 53.9529
rfemur -23.7103 -190.272 -5.07157
rtibia 25.7868
rfoot -2.81498 -46.881
rtoes -20.1789
lfemur -21.038 -7.11042 -13.9396
ltibia 34.8572
lfoot -19.382 -0.319424
ltoes -11.3684
367
root 10.638 18.638 -10.1327 550.937 36.3285 185.453
lowerback 4.38564 -0.351038 -3.52272
upperback -0.228033 -0.606162 1.47991
thorax -2.64323 -0.240958 3.5464
lowerneck -19.7346 -1.06952 -11.905
upperneck 21.6221 -1.90227 19.2257
head 10.5057 0.668322 8.97979
rclavicle -1.38155e-014 -3.97569e-016
rhumerus -37.3145 -29.9543 16.6404
rradius 24.7139
rwrist 52.1067
rhand -24.778 -12.211
rfingers 7.12502
rthumb 1.72594 -42.1838
lclavicle -1.38155e-014 -3.97569e-016
lhumerus -20.6425 -17.1682 -5.07365
lradius 25.4991
lwrist -2.91854
lhand -30.3694 24.2521
lfingers 7.12502
lthumb -3.67419 54.2002
rfemur -25.099 -189.604 -6.33129
rtibia 26.7434
rfoot -0.25252 -46.8366
rtoes -22.8227
lfemur -20.7294 -7.25488 -14.6936
ltibia 35.4196
lfoot -20.629 2.27715
ltoes -11.7648
368
root 10.6562 18.573 -10.1786 550.187 39.5485 184.214
lowerback 3.88682 -0.189162 -4.9014
upperback -0.234368 -0.454147 0.993511
thorax -2.37773 -0.158024 3.80572
lowerneck -19.6753 -1.24752 -11.6283
upperneck 21.9523 -2.32506 19.475
head 10.7006 0.539622 9.0065
rclavicle 8.32908e-014 -4.77083e-015
rhumerus -35.8068 -29.6405 15.5415
rradius 24.9896
rwrist 51.4691
rhand -25.1816 -12.446
rfingers 7.12502
rthumb 1.33621 -42.4215
lclavicle 8.32908e-014 -4.77083e-015
lhumerus -20.1926 -16.2899 -5.5494
lradius 25.3404
lwrist -3.2032
lhand -30.4666 24.2739
lfingers 7.12502
lthumb -3.76801 54.2203
rfemur -26.2616 -189.326 -8.37178
rtibia 27.7319
rfoot 1.23768 -46.8912
rtoes -25.3858
lfemur -20.2632 -6.54051 -16.3567
ltibia 35.9087
lfoot -21.6348 4.20925
ltoes -12.5982
369
root 10.6789 18.534 -10.2249 550.379 42.6718 184.496
lowerback 3.46429 -0.0631781 -4.97235
upperback -0.392066 -0.274245 0.893354
thorax -2.32185 -0.0667949 3.72932
lowerneck -19.2193 -1.23941 -11.5498
upperneck 22.1938 -2.42412 19.6258
head 10.7184 0.511495 9.04788
rclavicle -1.73937e-014 4.77083e-015
rhumerus -34.056 -28.2126 13.8733
rradius 25.2374
rwrist 49.4841
rhand -26.3631 -12.7543
rfingers 7.12502
rthumb 0.195049 -42.734
lclavicle -1.73937e-014 4.77083e-015
lhumerus -20.3079 -15.7233 -5.67799
lradius 25.1943
lwrist -4.40697
lhand -30.5406 24.1447
lfingers 7.12502
lthumb -3.83955 54.0898
rfemur -27.1458 -189.415 -8.89814
rtibia 28.5686
rfoot 2.49171 -47.0429
rtoes -25.9625
lfemur -19.9015 -5.3985 -16.6374
ltibia 36.458
lfoot -22.4593 5.74927
ltoes -13.0675
370
root 10.7018 18.5103 -10.2558 550.635 45.7345 184.701
lowerback 3.04548 0.0463219 -5.14518
upperback -0.621806 -0.120121 0.804198
thorax -2.33958 0.0169338 3.72499
lowerneck -18.6096 -1.18086 -11.4809
upperneck 22.3134 -2.43298 19.6993
head 10.6408 0.504492 9.05351
rclavicle 2.01766e-014 -3.97569e-015
rhumerus -32.7158 -27.0431 12.6214
rradius 25.4301
rwrist 48.6019
rhand -27.1689 -13.299
rfingers 7.12502
rthumb -0.583249 -43.278
lclavicle 2.01766e-014 -3.97569e-015
lhumerus -20.8871 -16.1961 -5.22713
lradius 25.3472
lwrist -4.03812
lhand -31.3985 24.3193
lfingers 7.12502
lthumb -4.66793 54.2479
rfemur -27.866 -190.243 -9.35076
rtibia 29.3836
rfoot 2.70632 -47.8306
rtoes -28.1529
lfemur -19.638 -3.85094 -16.9615
ltibia 36.9121
lfoot -22.8253 6.93431
ltoes -13.8969
371
root 10.7287 18.5132 -10.2898 551.463 48.9204 185.585
lowerback 2.41196 0.185032 -4.74657
upperback -0.764891 0.108713 0.748674
thorax -2.15256 0.123419 3.43095
lowerneck -18.1256 -1.16588 -11.4638
upperneck 22.3154 -2.48476 19.816
head 10.5557 0.476978 9.07501
rclavicle 1.18177e-013 -2.14687e-014
rhumerus -31.5734 -25.8825 11.2447
rradius 25.6066
rwrist 47.2287
rhand -28.0888 -12.4638
rfingers 7.12502
rthumb -1.47169 -42.4384
lclavicle 1.18177e-013 -2.14687e-014
lhumerus -21.4384 -15.5075 -4.82912
lradius 25.5754
lwrist -3.97044
lhand -31.4605 24.5935
lfingers 7.12502
lthumb -4.72784 54.5207
rfemur -28.2899 -191.186 -9.17702
rtibia 30.0791
rfoot 2.48483 -48.7538
rtoes -28.5592
lfemur -19.3831 -2.18018 -16.7713
ltibia 37.3641
lfoot -23.0171 7.88469
ltoes -14.7404
372
root 10.7627 18.5363 -10.3006 551.849 52.2359 186.253
lowerback 2.11218 0.349458 -4.78604
upperback -0.707116 0.342258 0.67637
thorax -1.94626 0.23389 3.36936
lowerneck -18.0579 -1.22449 -11.6238
upperneck 22.4535 -2.61016 20.0661
head 10.623 0.430519 9.20382
rclavicle 7.56376e-014 -1.74931e-014
rhumerus -30.567 -25.4719 9.94307
rradius 25.7654
rwrist 47.1065
rhand -27.8716 -12.9602
rfingers 7.12502
rthumb -1.26188 -42.9362
lclavicle 7.56376e-014 -1.74931e-014
lhumerus -22.1697 -14.9742 -4.21912
lradius 25.5523
lwrist -3.62497
lhand -31.4693 24.3689
lfingers 7.12502
lthumb -4.73632 54.2959
rfemur -28.8882 -191.883 -9.02751
rtibia 30.8078
rfoot 2.15795 -49.7997
rtoes -29.0756
lfemur -18.7004 -0.620046 -16.6628
ltibia 37.7234
lfoot -23.0694 8.49631
ltoes -15.2399
373
root 10.7917 18.581 -10.2957 552.303 55.6139 187.08
lowerback 1.9406 0.542118 -4.8465
upperback -0.558882 0.608408 0.593925
thorax -1.72176 0.358574 3.3096
lowerneck -17.9941 -1.08548 -11.3674
upperneck 22.4958 -2.47282 19.8731
head 10.591 0.484711 9.09118
rclavicle 5.35725e-014 4.77083e-015
rhumerus -29.8588 -24.7019 8.53173
rradius 26.1922
rwrist 46.2704
rhand -27.5541 -13.0833
rfingers 7.12502
rthumb -0.955292 -43.0609
lclavicle 5.35725e-014 4.77083e-015
lhumerus -23.016 -14.4208 -3.45806
lradius 25.5191
lwrist -3.49932
lhand -31.3624 24.1938
lfingers 7.12502
lthumb -4.63311 54.1232
rfemur -29.5092 -192.722 -8.74405
rtibia 31.5686
rfoot 1.41028 -50.9816
rtoes -30.5032
lfemur -18.0181 0.897474 -16.4538
ltibia 38.0825
lfoot -22.5419 9.09411
ltoes -16.3031
374
root 10.8168 18.632 -10.2787 552.236 59.162 187.442
lowerback 2.08201 0.77839 -5.18816
upperback -0.454848 0.906721 0.355119
thorax -1.72367 0.508377 3.24298
lowerneck -17.9631 -0.984549 -11.2815
upperneck 22.6552 -2.37331 19.8001
head 10.6196 0.525129 9.06862
rclavicle -3.27995e-014 4.77083e-015
rhumerus -29.2085 -24.0153 7.1336
rradius 26.3776
rwrist 45.355
rhand -27.1627 -12.772
rfingers 7.12502
rthumb -0.577236 -42.7509
lclavicle -3.27995e-014 4.77083e-015
lhumerus -23.7416 -13.7197 -2.87025
lradius 25.0119
lwrist -4.2952
lhand -30.8394 23.565
lfingers 7.12502
lthumb -4.1281 53.5047
rfemur -30.26 -193.777 -8.73795
rtibia 32.3557
rfoot 1.83821 -52.0764
rtoes -29.6588
lfemur -17.1811 2.25871 -16.5435
ltibia 38.4222
lfoot -21.8362 9.67858
ltoes -17.0762
375
root 10.8397 18.692 -10.2582 552.814 62.4914 188.46
lowerback 2.24618 0.955636 -5.13113
upperback -0.425003 1.13379 0.16204
thorax -1.80143 0.62194 3.00031
lowerneck -17.9219 -0.949656 -11.2497
upperneck 22.9418 -2.3825 19.8243
head 10.7166 0.527114 9.09583
rclavicle 7.40473e-014 -1.03368e-014
rhumerus -28.6999 -23.4548 5.76457
rradius 26.7043
rwrist 44.4728
rhand -26.6086 -12.6188
rfingers 7.12502
rthumb -0.0420775 -42.5985
lclavicle 7.40473e-014 -1.03368e-014
lhumerus -24.7163 -14.2144 -1.95698
lradius 24.8755
lwrist -4.09698
lhand -30.2688 23.635
lfingers 7.12502
lthumb -3.57702 53.5847
rfemur -31.0242 -195.094 -8.30227
rtibia 33.13
rfoot 2.08508 -53.0641
rtoes -29.4724
lfemur -16.5304 3.4214 -16.2235
ltibia 38.924
lfoot -20.7086 9.99231
ltoes -18.6718
